<svg id="logoLoader" xmlns="http://www.w3.org/2000/svg" width="130.21" height="58.76" viewBox="0 0 130.21 58.76">
  <path id="t7" d="M130.21,47.7H117.63V58.76h12.58Z" style="fill: #fff"/>
  <path id="t6" d="M128.23,0H114.17V11.06L94.37,44.29V58.76h14.06V47.61l19.8-34.06Z" style="fill: #fff"/>
  <path id="t5" d="M105.07,0H91V11.06L71.21,44.29V58.76H85.27V47.61l19.8-34.06Z" style="fill: #fff"/>
  <path id="t4" d="M81.91,0H67.85V11.06L48.05,44.29V58.76H62.11V47.61l19.8-34.06Z" style="fill: #fff"/>
  <path id="t3" d="M58.74,0H44.68V11.06L24.88,44.29V58.76H38.94V47.61l19.8-34.06Z" style="fill: #fff"/>
  <polygon id="t2" points="35.74 0 35.74 13.55 15.94 47.61 15.94 58.76 1.88 58.76 1.88 44.29 21.68 11.06 21.68 0 35.74 0" style="fill: #fff"/>
  <path id="t1" d="M12.58,0H0V11.06H12.58Z" style="fill: #fff"/>
</svg>
