<svg width="122" height="122" viewBox="0 0 122 122" fill="none" xmlns="http://www.w3.org/2000/svg">
<path d="M6.51371 1.3401C4.45093 1.99644 2.38814 3.84826 1.45051 5.8876L0.934814 6.98932V55.0428V103.096L1.45051 104.222C2.22406 105.862 3.86491 107.503 5.57608 108.277L7.02941 108.957L14.9055 109.027L22.805 109.097L22.8988 111.957C22.9691 114.301 23.0863 114.981 23.4848 115.754C24.1411 116.973 25.0553 117.841 26.368 118.427C27.376 118.872 27.8682 118.919 35.8615 118.919C43.5735 118.919 44.3705 118.872 45.2612 118.473C46.3864 117.958 47.7694 116.598 48.1913 115.59L48.4961 114.864L50.3713 114.981C52.8092 115.145 53.4889 115.45 55.9033 117.489C58.2709 119.528 59.3257 120.161 61.0837 120.677C62.2323 121.005 64.1545 121.029 76.9062 120.982L91.4161 120.911L92.7522 120.255C94.2758 119.505 95.612 118.145 96.2917 116.598C96.8778 115.262 96.9246 112.871 96.3621 111.558C95.9167 110.48 95.9167 110.48 96.2917 110.48C96.4793 110.48 97.0418 110.175 97.581 109.8L98.5186 109.097L106.582 109.027L114.622 108.957L116.076 108.277C117.787 107.503 119.428 105.862 120.201 104.222L120.717 103.096V60.0826V17.0688L119.943 15.4983C119.1 13.7871 117.928 12.6151 116.169 11.7478L115.091 11.2087L84.9699 11.0914C63.7794 10.9977 54.6375 10.8805 54.1218 10.7164C52.692 10.1773 51.9653 9.66157 48.0741 6.42674C43.761 2.86375 42.2374 1.92612 39.9402 1.36354C37.8774 0.89473 8.0608 0.871292 6.51371 1.3401ZM40.4325 5.72352C41.1357 6.07513 43.4329 7.78631 45.5191 9.52092C49.5743 12.9198 50.7464 13.7168 52.8326 14.4669C54.1218 14.9592 54.5672 14.9592 84.1494 15.0764C113.685 15.1936 114.177 15.1936 114.951 15.6624C115.396 15.9202 116.005 16.6 116.31 17.1626C116.826 18.1706 116.849 18.3815 116.849 24.1245V30.0316L115.701 29.5862C115.068 29.3518 113.708 29.0939 112.677 29.0002L110.802 28.8361L110.708 26.8202C110.637 25.4606 110.45 24.4527 110.122 23.7495C109.419 22.1789 107.871 20.585 106.348 19.8348L105.012 19.1785H60.8259H16.6401L15.4681 19.7645C12.5849 21.171 10.8971 23.8901 10.8971 27.1249V28.8361L8.99843 29.0002C7.96704 29.0939 6.58403 29.3518 5.95113 29.5862L4.80254 30.0316V19.1785C4.80254 12.076 4.8963 8.09103 5.06038 7.64566C5.38856 6.77836 6.39651 5.72352 7.26381 5.32503C7.82639 5.06718 10.8737 5.02029 23.5551 5.06718L39.1432 5.11406L40.4325 5.72352ZM104.66 23.515C106.09 24.2417 106.629 25.2028 106.746 27.1952L106.817 28.9064H60.8259H14.8352L14.9055 27.1952C15.0227 25.2262 15.5618 24.2651 16.9448 23.515C17.7887 23.0697 18.7263 23.0697 60.779 23.0462C103.136 23.0462 103.746 23.0462 104.66 23.515ZM115.185 33.8055C115.607 34.1103 116.169 34.79 116.404 35.3292C116.826 36.2434 116.849 37.6029 116.849 68.9901C116.849 100.33 116.826 101.737 116.404 102.651C115.888 103.753 115.021 104.526 113.825 104.854C113.31 105.018 110.661 105.089 106.934 105.042L100.863 104.972L100.769 103.565C100.722 102.721 100.441 101.69 100.113 101.034L99.55 99.9084L100.699 98.8301C102.222 97.4237 102.879 95.7125 102.714 93.6028C102.621 92.0558 101.8 90.0399 101.027 89.3835C100.699 89.1022 100.699 89.0319 101.121 88.5865C102.574 86.9926 103.16 84.0859 102.433 81.9059C101.918 80.312 100.136 78.3664 98.5186 77.6397C97.2762 77.0771 97.2059 77.0771 87.103 76.9599L76.9297 76.8427L76.5078 76.2567C76.1327 75.741 76.1093 75.5066 76.2968 74.3814C76.4374 73.6782 76.6015 70.9357 76.6718 68.2868C76.8594 62.286 76.3906 57.2228 75.4998 55.2772C74.7497 53.6364 73.2964 52.2534 71.7024 51.6439C68.5379 50.4719 65.1156 51.5267 63.3106 54.2693C62.1151 56.0977 61.9511 57.0353 62.2558 61.0437C62.4902 64.0675 62.4902 64.7004 62.1151 66.3178C61.5994 68.7088 60.6618 70.7481 59.185 72.7406C57.8255 74.569 56.9113 75.3191 55.0126 76.2098C53.8874 76.7255 53.278 76.8427 51.098 76.913L48.5195 77.0068L48.0507 76.1395C47.8163 75.6707 47.1834 74.8971 46.6677 74.4752C44.98 73.0219 44.2533 72.9281 35.2286 73.0219C27.5166 73.0922 27.1416 73.1156 26.2508 73.6079C25.0085 74.2642 23.9302 75.4363 23.3442 76.7255C22.8753 77.7569 22.8519 78.2023 22.8519 91.4229V105.089H15.5384C8.92811 105.089 8.10768 105.042 7.26381 104.643C6.13866 104.128 5.6464 103.612 5.15415 102.44C4.84942 101.69 4.80254 97.7987 4.80254 69.0135C4.80254 32.446 4.66189 35.1416 6.51371 33.8055L7.45134 33.1257L60.9197 33.1726L114.388 33.243L115.185 33.8055ZM70.8585 55.582C72.1009 56.379 72.4759 58.2542 72.7104 64.6535C72.8041 67.6071 72.7572 69.7167 72.5228 71.6858C72.0775 75.5066 72.1243 76.6318 72.7572 77.8741C73.4136 79.1165 74.234 79.9369 75.4764 80.4995C76.3437 80.898 77.1875 80.9449 86.2122 80.9449C96.7606 80.9449 96.9246 80.9683 98.0732 82.1872C98.8468 83.0311 98.964 84.5782 98.3311 85.5861C97.8154 86.4065 96.6433 87.0394 95.6354 87.0394C94.393 87.0394 93.5257 88.6334 94.018 89.9695C94.2055 90.4384 95.3307 91.0244 96.0339 91.0244C97.5341 91.0244 98.9405 92.759 98.7296 94.3764C98.4952 96.1579 96.9715 97.119 94.393 97.119C92.8694 97.119 92.4006 97.3534 92.0021 98.291C91.4629 99.5802 92.6115 101.104 94.1117 101.104C94.815 101.104 95.8698 101.69 96.2683 102.323C97.159 103.706 96.9012 105.183 95.5416 106.331C94.815 106.941 94.6509 106.964 92.1662 106.964C89.2595 106.964 88.5563 107.198 88.064 108.23C87.4077 109.543 88.2984 110.808 90.0799 111.066C90.8535 111.183 91.3692 111.441 91.9318 112.004C92.5881 112.66 92.7053 112.941 92.7053 113.949C92.7053 115.309 92.1193 116.223 90.9238 116.715C89.7049 117.231 63.2169 117.184 61.7401 116.692C61.1306 116.481 59.7945 115.567 58.4818 114.442C55.2939 111.746 53.3717 110.949 50.1369 110.949H48.8711V95.9469V80.9449H51.0511C54.4969 80.9449 57.0988 80.0541 59.7007 78.0148C62.5605 75.7879 65.2093 71.1935 66.0297 67.0679C66.4986 64.8411 66.522 64.3957 66.2641 61.1609C65.9829 57.4103 66.1001 56.6837 67.108 55.7929C68.0691 54.9256 69.7099 54.8319 70.8585 55.582ZM44.2299 77.6163L44.769 78.1554L44.8393 95.5484C44.8628 105.112 44.8393 113.176 44.769 113.457C44.6987 113.738 44.4174 114.207 44.1361 114.465C43.6438 114.91 43.3391 114.934 35.8146 114.934H27.9854L27.4228 114.348L26.8368 113.785V96.1345C26.8368 76.9599 26.7899 77.7335 28.1026 77.1943C28.3605 77.0771 31.9938 77.0068 36.1428 77.0303C43.6673 77.0771 43.7142 77.0771 44.2299 77.6163Z" fill="black" stroke="black" stroke-width="0.8"/>
</svg>
