<svg width="130" height="200" viewBox="0 0 130 200" fill="none" xmlns="http://www.w3.org/2000/svg">
<path d="M122.063 87.9631L70.0781 48.9631L83.073 39.2131C83.4523 38.9299 83.7605 38.5621 83.9729 38.139C84.1853 37.7159 84.2962 37.2491 84.2968 36.7756C84.2968 31.6578 82.2638 26.7496 78.6449 23.1307C75.026 19.5118 70.1178 17.4788 65 17.4788C59.8821 17.4788 54.9739 19.5118 51.355 23.1307C47.7361 26.7496 45.7031 31.6578 45.7031 36.7756C45.7031 37.5837 46.0241 38.3587 46.5955 38.9301C47.1669 39.5015 47.9419 39.8225 48.75 39.8225C49.558 39.8225 50.333 39.5015 50.9044 38.9301C51.4758 38.3587 51.7968 37.5837 51.7968 36.7756C51.8187 33.4157 53.1208 30.1905 55.4377 27.7572C57.7547 25.3238 60.9122 23.8653 64.267 23.6789C67.6218 23.4924 70.9215 24.592 73.4938 26.7537C76.0662 28.9153 77.7176 31.9763 78.1117 35.3131L63.2226 46.485L63.116 46.5663L7.93706 87.9631C6.74439 88.8576 5.8631 90.1044 5.41781 91.5272C4.97253 92.95 4.98579 94.4768 5.45572 95.8916C5.92564 97.3064 6.82846 98.5378 8.03649 99.4114C9.24451 100.285 10.6966 100.757 12.1875 100.76H117.812C119.304 100.759 120.758 100.289 121.967 99.4158C123.177 98.543 124.082 97.3117 124.553 95.8964C125.024 94.4811 125.038 92.9534 124.593 91.5296C124.148 90.1059 123.266 88.8582 122.073 87.9631H122.063ZM118.762 93.9706C118.707 94.1774 118.582 94.3591 118.41 94.4856C118.237 94.6121 118.026 94.6758 117.812 94.6663H12.1875C11.9747 94.6652 11.7677 94.5974 11.5956 94.4723C11.4235 94.3473 11.295 94.1714 11.2282 93.9694C11.1614 93.7674 11.1598 93.5496 11.2235 93.3466C11.2872 93.1436 11.413 92.9658 11.5832 92.8381L65 52.7717L118.407 92.8381C118.587 92.9572 118.721 93.1348 118.786 93.3411C118.851 93.5474 118.842 93.7697 118.762 93.9706Z" fill="black"/>
<path d="M26.4562 141.898C28.8706 127.431 30.0777 120.197 34.8717 115.643C35.4225 115.119 35.9997 114.628 36.6033 114.17C41.897 110.194 49.2339 110.194 63.9029 110.194C78.5718 110.194 85.9137 110.194 91.1975 114.17C91.8044 114.631 92.3832 115.121 92.934 115.638C97.733 120.197 98.9352 127.431 101.345 141.893L104.036 158.012C104.926 163.357 105.372 166.032 103.888 167.777C102.408 169.528 99.6971 169.528 94.2748 169.528H33.531C28.1087 169.528 25.3975 169.528 23.9133 167.777C22.4291 166.032 22.8793 163.357 23.7698 158.012L26.4562 141.898Z" stroke="black" stroke-width="5.5"/>
<path d="M46.5871 122.555V105.25C46.5871 100.66 48.4114 96.2584 51.6588 93.013C54.9061 89.7676 59.3105 87.9443 63.9029 87.9443C68.4953 87.9443 72.8997 89.7676 76.147 93.013C79.3943 96.2584 81.2187 100.66 81.2187 105.25V122.555" stroke="black" stroke-width="5.5" stroke-linecap="round"/>
</svg>
