<svg width="130" height="200" viewBox="0 0 130 200" fill="none" xmlns="http://www.w3.org/2000/svg">
<path d="M122.063 87.9634L70.0781 48.9634L83.073 39.2134C83.4524 38.9301 83.7605 38.5623 83.9729 38.1392C84.1854 37.7161 84.2963 37.2493 84.2969 36.7759C84.2969 31.658 82.2638 26.7498 78.6449 23.1309C75.0261 19.5121 70.1178 17.479 65 17.479C59.8821 17.479 54.9739 19.5121 51.355 23.1309C47.7362 26.7498 45.7031 31.658 45.7031 36.7759C45.7031 37.584 46.0241 38.3589 46.5955 38.9303C47.1669 39.5017 47.9419 39.8228 48.75 39.8228C49.5581 39.8228 50.333 39.5017 50.9044 38.9303C51.4758 38.3589 51.7969 37.584 51.7969 36.7759C51.8188 33.416 53.1208 30.1908 55.4378 27.7574C57.7547 25.3241 60.9122 23.8656 64.267 23.6791C67.6219 23.4927 70.9215 24.5923 73.4939 26.7539C76.0662 28.9156 77.7176 31.9766 78.1117 35.3134L63.2226 46.4853L63.116 46.5665L7.93709 87.9634C6.74442 88.8579 5.86313 90.1047 5.41784 91.5275C4.97256 92.9502 4.98582 94.477 5.45575 95.8918C5.92567 97.3067 6.82849 98.538 8.03652 99.4116C9.24454 100.285 10.6967 100.757 12.1875 100.76H117.812C119.304 100.759 120.758 100.289 121.967 99.4161C123.177 98.5432 124.082 97.312 124.553 95.8967C125.024 94.4813 125.038 92.9537 124.593 91.5299C124.148 90.1061 123.266 88.8584 122.073 87.9634H122.063ZM118.762 93.9708C118.707 94.1776 118.582 94.3593 118.41 94.4858C118.237 94.6124 118.026 94.6761 117.812 94.6665H12.1875C11.9748 94.6654 11.7677 94.5976 11.5956 94.4726C11.4235 94.3475 11.295 94.1716 11.2282 93.9697C11.1615 93.7677 11.1598 93.5498 11.2235 93.3468C11.2872 93.1439 11.413 92.966 11.5832 92.8384L65 52.772L118.407 92.8384C118.587 92.9574 118.721 93.135 118.786 93.3413C118.851 93.5476 118.842 93.77 118.762 93.9708Z" fill="black"/>
<g clip-path="url(#clip0_683_915)">
<path d="M38.9999 108C52.9999 130 68.3913 76.6912 78.9999 90.4998C85.1009 98.4409 82.5731 118.573 74.6535 130" stroke="black" stroke-width="5" stroke-linecap="round"/>
<path d="M69.0937 145.7C69.15 144.653 69.4406 142.741 67.8531 141.287C67.2464 140.758 66.5383 140.357 65.7719 140.109C62.4969 138.953 58.4719 142.819 61.3187 146.359C62.85 148.259 64.0281 148.844 63.9187 151.003C63.8406 152.522 62.3469 154.109 60.3812 154.716C58.6719 155.241 56.7875 154.544 55.5968 153.212C54.1406 151.587 54.2844 150.053 54.275 149.384M67.8531 141.291L69.6469 139.494M55.725 153.416L54.0219 155.119" stroke="black" stroke-width="5" stroke-linecap="round" stroke-linejoin="round"/>
<path d="M83.1031 122.728C85.9937 123.284 86.6437 125.109 87.5062 130.178C88.2843 134.74 88.5031 140.218 88.5031 142.553C88.4241 143.41 88.0751 144.219 87.5062 144.865C81.4593 151.203 69.4562 163.171 63.4 169.115C61.025 171.24 57.4375 171.287 54.9125 169.337C49.7468 164.69 44.7843 159.437 39.9218 154.696C37.9687 152.178 38.0156 148.603 40.1406 146.231C46.55 139.584 58.1468 128.206 64.6906 121.918C65.3468 121.356 66.1531 121.006 67.0125 120.928C68.4812 120.928 71 121.125 73.4562 121.265" stroke="black" stroke-width="5" stroke-linecap="round"/>
</g>
<defs>
<clipPath id="clip0_683_915">
<rect width="56" height="89" fill="white" transform="translate(36 85)"/>
</clipPath>
</defs>
</svg>
