<svg xmlns="http://www.w3.org/2000/svg" xmlns:xlink="http://www.w3.org/1999/xlink" version="1.1" id="Layer_1" x="0px" y="0px" viewBox="0 0 245.6 231.3" style="enable-background:new 0 0 245.6 231.3;" xml:space="preserve">
<style type="text/css">
	.st0{display:none;}
	.st1{display:inline;}
	.st2{display:inline;fill:#FFFFFF;}
	.st3{clip-path:url(#rectCircleClip_1_);}
	.st4{fill:#FFFFFF;}
	.st5{clip-path:url(#circleRectClip_1_);}
	.st6{fill:none;stroke:#000000;stroke-miterlimit:10;}
</style>
<g class="st0">
	<path class="st1" d="M164.2,54.7H89.3v119.4h74.6v0c17.2-14.2,28.2-35.8,28.2-59.8C192,90.3,181.2,68.9,164.2,54.7L164.2,54.7z"/>
	<path class="st1" d="M175.9,19.1c31.2,20.2,51.8,55.2,51.8,95.1c0,40.1-20.9,75.4-52.4,95.5v0h0l-0.2,0.1H53.7V18.9h121.8   c-17.6-11.3-38.5-17.9-61-17.9C51.9,1.1,1.2,51.8,1.2,114.4s50.7,113.3,113.3,113.3c22.4,0,43.2-6.5,60.8-17.7h69.4V19.1H175.9z"/>
	<path class="st2" d="M227.7,114.2c0-40-20.7-75.1-52-95.3l0,0h-122v190.9h121.4l0.2-0.1h0v0C206.8,189.6,227.7,154.3,227.7,114.2z    M163.8,174L163.8,174l-74.6,0V54.7h74.9l0,0c17,14.2,27.8,35.6,27.8,59.5C192,138.3,181,159.8,163.8,174z"/>
</g>
<g id="D">
	<g id="origGroup">
		<rect id="rectBlack" x="53.5" y="20.7" width="190.9" height="189.8"/>
		<circle id="circleBlack" cx="114.4" cy="115.6" r="113.3"/>
	</g>
	<g id="clipped">
		<g id="rectGroupAll">
			<defs>
				<circle id="rectCircleClip" cx="114.4" cy="115.4" r="113.3"/>
			</defs>
			<clipPath id="rectCircleClip_1_">
				<use xlink:href="#rectCircleClip" style="overflow:visible;"/>
			</clipPath>
			<g id="rectClipGroup" class="st3">
				<path id="borderRect" class="st4" d="M53.5,20.5v189.8h190.9V20.5H53.5z M208.5,174.7H89.3V56.1h119.2V174.7z"/>
			</g>
		</g>
		<g id="circleGroupAll">
			<defs>
				<rect id="circleRectClip" x="53.5" y="20.5" width="190.9" height="189.8"/>
			</defs>
			<clipPath id="circleRectClip_1_">
				<use xlink:href="#circleRectClip" style="overflow:visible;"/>
			</clipPath>
			<g id="circleClipGroup" class="st5">
				<path id="borderCircle" class="st4" d="M114.4,2.1C51.8,2.1,1.1,52.8,1.1,115.4s50.7,113.3,113.3,113.3S227.7,178,227.7,115.4      S176.9,2.1,114.4,2.1z M114.4,193c-42.9,0-77.6-34.7-77.6-77.6s34.7-77.6,77.6-77.6c42.9,0,77.6,34.7,77.6,77.6      S157.2,193,114.4,193z"/>
			</g>
		</g>
	</g>
</g>
<g id="lines">
	<line id="l" class="st6" x1="53.9" y1="20" x2="53.9" y2="211.2"/>
	<line id="t" class="st6" x1="54.1" y1="20.2" x2="244.3" y2="20.2"/>
	<line id="r" class="st6" x1="244.1" y1="19.8" x2="244.1" y2="210.5"/>
	<line id="b" class="st6" x1="53.5" y1="210.6" x2="244.4" y2="210.1"/>
</g>
</svg>