<?xml version="1.0" encoding="utf-8"?>
<!-- Generator: Adobe Illustrator 26.5.0, SVG Export Plug-In . SVG Version: 6.00 Build 0)  -->
<svg version="1.1" id="preloaderDesc" xmlns="http://www.w3.org/2000/svg" xmlns:xlink="http://www.w3.org/1999/xlink" x="0px"
	 y="0px" viewBox="0 0 1440 832" enable-background="new 0 0 1440 832" xml:space="preserve">
<g id="lText1B" opacity="0.4">
	<path fill="#F9785F" d="M127.3,607.1v47.2h53.8v-47.2h35.2v140h-35.2v-60.6h-53.8v60.6H92.1v-140H127.3z"/>
	<path fill="#F9785F" d="M327.3,726.1h-54.7l-7.4,21.1h-37.2l55.2-140h33.8l55,140h-37.1L327.3,726.1z M284.1,694.7h31.7L300,649.9
		L284.1,694.7z"/>
	<path fill="#F9785F" d="M383.6,747.2v-140h70.9c12.3,0,20.8,2.2,27.8,6.7c11.6,7.3,19.2,20.1,19.2,36.5c0,10.5-3.4,19.8-9.2,27.1
		c-4.1,5.1-10,9-16.2,11.5l34.9,58.1h-40.6l-30.9-53.7h-20.9v53.7H383.6z M451.7,661.5c4.2,0,6.2-0.3,8-1.1c4-1.7,7.3-5,7.3-10.1
		c0-4.9-3.1-8.3-7.3-10.1c-1.8-0.8-3.8-1.1-8-1.1h-33v22.3H451.7z"/>
	<path fill="#F9785F" d="M600.1,610.6c28.7,8.9,49.8,34.7,49.8,66.7s-21,57.8-49.7,66.6c-6.8,2.1-14.1,3.3-25.1,3.3h-50.8v-140h50.8
		C586.1,607.1,593.4,608.5,600.1,610.6z M594.2,711.3c13-6.1,20.8-19.3,20.8-34.5s-7.8-28.1-20.7-34.2c-4.8-2.2-10-3.5-19-3.5h-15.9
		V715h15.9C584.3,715,589.5,713.6,594.2,711.3z"/>
</g>
<g id="lText1">
	<defs>
		<path id="SVGID_1_" d="M140.7,234.4c-5.6-4.2-10.4-5.6-14.9-5.6c-13.2,0-21.9,10.1-21.9,22.9c0,12.1,8.5,22.7,21.9,22.7
			c9.8,0,18.5-5.8,21.6-16.7h-24.6v-19.3h43.7c1.4,4.7,2.1,9.2,2.1,13.5c0,23.6-18.2,41.7-42.8,41.7c-23.6,0-43.1-17.2-43.1-42
			c0-23.8,18.4-42.1,43.1-42.1c8.8,0,17.4,2.4,26.5,8.6L140.7,234.4z M240.6,209.7v19.1h-39.8v9.7h30.1v18.8h-30.1v17.1h39.8v19.3
			h-60.8v-84H240.6z M323.8,209.7V229h-26.7v64.7H276V229h-26.5v-19.3H323.8z M405.1,209.7V229h-26.7v64.7h-21.1V229h-26.5v-19.3
			H405.1z M416.2,209.7h21.1v84h-21.1V209.7z M518.1,293.7l-44.5-47.4v47.4h-21v-84h11.8l44.6,47.4v-47.4h21v84H518.1z M599.1,234.4
			c-5.6-4.2-10.4-5.6-14.9-5.6c-13.2,0-21.9,10.1-21.9,22.9c0,12.1,8.5,22.7,21.9,22.7c9.8,0,18.5-5.8,21.6-16.7h-24.6v-19.3H625
			c1.4,4.7,2.1,9.2,2.1,13.5c0,23.6-18.2,41.7-42.8,41.7c-23.6,0-43.1-17.2-43.1-42c0-23.8,18.4-42.1,43.1-42.1
			c8.8,0,17.4,2.4,26.5,8.6L599.1,234.4z"/>
	</defs>
	<clipPath id="SVGID_00000093149043803262502600000018393782492494712991_">
		<use xlink:href="#SVGID_1_"  overflow="visible"/>
	</clipPath>
	<g clip-path="url(#SVGID_00000093149043803262502600000018393782492494712991_)">
		
			<image overflow="visible" width="763" height="768" xlink:href="asset/img/preloader__assets.png"  transform="matrix(0.7292 0 0 0.7292 78.9086 -40.4043)">
		</image>
	</g>
</g>
<g id="rText1">
	<defs>
		<path id="SVGID_00000012473348285781572310000008561183448067325866_" d="M717.3,335.8c17.2,5.3,29.9,20.8,29.9,40
			s-12.6,34.7-29.8,40c-4.1,1.2-8.4,2-15.1,2h-30.5v-84h30.5C708.9,333.8,713.3,334.6,717.3,335.8z M713.7,396.3
			c7.8-3.6,12.5-11.6,12.5-20.7s-4.7-16.9-12.4-20.5c-2.9-1.3-6-2.1-11.4-2.1h-9.6v45.5h9.6C707.8,398.5,710.9,397.6,713.7,396.3z
			 M758.3,417.8v-84h42.5c7.4,0,12.5,1.3,16.7,4c7,4.4,11.5,12.1,11.5,21.9c0,6.3-2.1,11.9-5.5,16.3c-2.5,3-6,5.4-9.7,6.9l20.9,34.9
			h-24.4l-18.5-32.2h-12.5v32.2H758.3z M799.2,366.4c2.5,0,3.7-0.2,4.8-0.6c2.4-1,4.4-3,4.4-6c0-2.9-1.9-5-4.4-6
			c-1.1-0.5-2.3-0.6-4.8-0.6h-19.8v13.4H799.2z M903.6,333.8v19.1h-39.8v9.7h30.1v18.8h-30.1v17.1h39.8v19.3h-60.8v-84H903.6z
			 M923.3,387.9c7,6.1,15.4,10.6,24,10.6c5.3,0,12.5-1.6,12.5-6.6c0-5.7-10-6.6-20.6-8.7c-13.7-2.8-27.6-7.9-27.6-23.7
			c0-14.4,11-25.7,30.9-25.7c10.7,0,22.1,3.6,32.1,11.1L962.8,360c-5.7-4.6-13.7-7.3-20.5-7.3c-4.5,0-10.2,1.1-10.2,4.9
			c0,4.1,6.5,5.2,16.7,6.9c14.4,2.3,31.7,6.9,31.7,27c0,15.2-14.5,26.2-32.9,26.2c-11.1,0-24.3-4-36.7-14.8L923.3,387.9z M998,387.9
			c7,6.1,15.4,10.6,24,10.6c5.3,0,12.5-1.6,12.5-6.6c0-5.7-10-6.6-20.6-8.7c-13.7-2.8-27.6-7.9-27.6-23.7c0-14.4,11-25.7,30.9-25.7
			c10.7,0,22.1,3.6,32.1,11.1l-11.8,15.1c-5.7-4.6-13.7-7.3-20.5-7.3c-4.5,0-10.2,1.1-10.2,4.9c0,4.1,6.5,5.2,16.7,6.9
			c14.4,2.3,31.7,6.9,31.7,27c0,15.2-14.5,26.2-32.9,26.2c-11.1,0-24.3-4-36.7-14.8L998,387.9z M1126.1,333.8v19.1h-39.8v9.7h30.1
			v18.8h-30.1v17.1h39.8v19.3h-60.8v-84H1126.1z M1184.5,335.8c17.2,5.3,29.9,20.8,29.9,40s-12.6,34.7-29.8,40
			c-4.1,1.2-8.4,2-15.1,2H1139v-84h30.5C1176.1,333.8,1180.4,334.6,1184.5,335.8z M1180.9,396.3c7.8-3.6,12.5-11.6,12.5-20.7
			s-4.7-16.9-12.4-20.5c-2.9-1.3-6-2.1-11.4-2.1h-9.6v45.5h9.6C1175,398.5,1178.1,397.6,1180.9,396.3z"/>
	</defs>
	<clipPath id="SVGID_00000045613513527668275660000011941881242202490000_">
		<use xlink:href="#SVGID_00000012473348285781572310000008561183448067325866_"  overflow="visible"/>
	</clipPath>
	<g transform="matrix(1 0 0 1 0 0)" clip-path="url(#SVGID_00000045613513527668275660000011941881242202490000_)">
		
			<image overflow="visible" width="763" height="768" xlink:href="assets/img/preloader__assets.png"  transform="matrix(0.7477 0 0 0.7477 656.6119 101.8418)">
		</image>
	</g>
</g>
<g id="lText2">
	<defs>
		<path id="SVGID_00000096739676473110527330000010644853305895304629_" d="M1255.7,448.9h21.1v84h-21.1V448.9z M1299.4,503
			c7,6.1,15.4,10.6,24,10.6c5.3,0,12.5-1.6,12.5-6.6c0-5.7-10-6.6-20.6-8.7c-13.7-2.8-27.6-7.9-27.6-23.7c0-14.4,11-25.7,30.9-25.7
			c10.7,0,22.1,3.6,32.1,11.1l-11.8,15.1c-5.7-4.6-13.7-7.3-20.5-7.3c-4.5,0-10.2,1.1-10.2,4.9c0,4.1,6.5,5.2,16.7,6.9
			c14.4,2.3,31.7,6.9,31.7,27c0,15.2-14.5,26.2-32.9,26.2c-11.1,0-24.3-4-36.7-14.8L1299.4,503z"/>
	</defs>
	<clipPath id="SVGID_00000131362794481039422650000009572556219327924633_">
		<use xlink:href="#SVGID_00000096739676473110527330000010644853305895304629_"  overflow="visible"/>
	</clipPath>
	<g transform="matrix(1 0 0 1 0 -3.051758e-05)" clip-path="url(#SVGID_00000131362794481039422650000009572556219327924633_)">
		
			<image overflow="visible" width="763" height="768" xlink:href="assets/img/preloader__assets.png"  transform="matrix(0.1594 0 0 0.1597 1242.9655 427.5)">
		</image>
	</g>
</g>
</svg>
