<?xml version="1.0" encoding="utf-8"?>
<!-- Generator: Adobe Illustrator 26.5.0, SVG Export Plug-In . SVG Version: 6.00 Build 0)  -->
<svg version="1.1" id="Шар_1" xmlns="http://www.w3.org/2000/svg" xmlns:xlink="http://www.w3.org/1999/xlink" x="0px" y="0px"
	 viewBox="0 0 375 812" enable-background="new 0 0 375 812" xml:space="preserve">
<g>
	<g id="bText1" opacity="0.4">
		<path fill="#F9785F" d="M44.1,631.8v28.1h32v-28.1H97v83.3H76.1V679h-32v36.1H23.2v-83.3H44.1z"/>
		<path fill="#F9785F" d="M163,702.5h-32.5l-4.4,12.5H104l32.8-83.3h20.1l32.7,83.3h-22.1L163,702.5z M137.4,683.9h18.9l-9.4-26.7
			L137.4,683.9z"/>
		<path fill="#F9785F" d="M196.5,715.1v-83.3h42.2c7.3,0,12.4,1.3,16.6,4c6.9,4.4,11.4,12,11.4,21.7c0,6.3-2,11.8-5.5,16.1
			c-2.4,3-5.9,5.3-9.6,6.9l20.7,34.6h-24.2l-18.4-31.9h-12.4v31.9H196.5z M237,664.1c2.5,0,3.7-0.2,4.8-0.6c2.4-1,4.4-3,4.4-6
			c0-2.9-1.9-4.9-4.4-6c-1-0.5-2.3-0.6-4.8-0.6h-19.6v13.2H237z"/>
		<path fill="#F9785F" d="M325.3,633.8c17.1,5.3,29.6,20.6,29.6,39.7c0,19.1-12.5,34.4-29.6,39.6c-4.1,1.2-8.4,2-14.9,2h-30.2v-83.3
			h30.2C317,631.8,321.3,632.6,325.3,633.8z M321.8,693.8c7.7-3.6,12.4-11.5,12.4-20.5s-4.6-16.7-12.3-20.3
			c-2.8-1.3-5.9-2.1-11.3-2.1H301v45.1h9.5C315.9,695.9,319,695.1,321.8,693.8z"/>
	</g>
	<g id="lText3B">
		<g>
			<defs>
				<path id="SVGID_1_" d="M53.2,138.3c-3.5-2.6-6.5-3.5-9.3-3.5c-8.2,0-13.6,6.3-13.6,14.3c0,7.5,5.3,14.2,13.6,14.2
					c6.1,0,11.5-3.6,13.5-10.4H42.1v-12.1h27.2c0.9,2.9,1.3,5.7,1.3,8.4c0,14.7-11.4,26-26.7,26c-14.7,0-26.8-10.7-26.8-26.2
					c0-14.8,11.5-26.2,26.8-26.2c5.5,0,10.8,1.5,16.5,5.4L53.2,138.3z M115.5,122.9v11.9H90.7v6.1h18.8v11.7H90.7v10.6h24.8v12.1
					H77.6v-52.4H115.5z M167.3,122.9v12.1h-16.6v40.3h-13.1v-40.3H121v-12.1H167.3z M218,122.9v12.1h-16.6v40.3h-13.1v-40.3h-16.5
					v-12.1H218z M225,122.9h13.1v52.4H225V122.9z M288.5,175.3l-27.8-29.5v29.5h-13.1v-52.4h7.4l27.8,29.5v-29.5h13.1v52.4H288.5z
					 M338.9,138.3c-3.5-2.6-6.5-3.5-9.3-3.5c-8.2,0-13.6,6.3-13.6,14.3c0,7.5,5.3,14.2,13.6,14.2c6.1,0,11.5-3.6,13.5-10.4h-15.3
					v-12.1h27.2c0.9,2.9,1.3,5.7,1.3,8.4c0,14.7-11.4,26-26.7,26c-14.7,0-26.8-10.7-26.8-26.2c0-14.8,11.5-26.2,26.8-26.2
					c5.5,0,10.8,1.5,16.5,5.4L338.9,138.3z"/>
			</defs>
			<clipPath id="SVGID_00000049936681324675845430000003480534709423000980_">
				<use xlink:href="#SVGID_1_"  overflow="visible"/>
			</clipPath>
			<g transform="matrix(1 0 0 1 0 0)" clip-path="url(#SVGID_00000049936681324675845430000003480534709423000980_)">
				
					<image overflow="visible" width="763" height="768" xlink:href="../../../../../../Downloads/Telegram Desktop/Backdrop Assets.zip - 4.png"  transform="matrix(0.4545 0 0 0.4545 14.7006 -33.0016)">
				</image>
			</g>
		</g>
	</g>
	<g id="rText1">
		<g>
			<defs>
				<path id="SVGID_00000049184959512956502670000016141356889556450197_" d="M100.2,336c8.9,2.8,15.5,10.8,15.5,20.7
					s-6.5,18-15.5,20.7c-2.1,0.6-4.4,1-7.8,1H76.6V335h15.8C95.8,335,98.1,335.4,100.2,336z M98.3,367.4c4-1.9,6.5-6,6.5-10.7
					c0-4.7-2.4-8.7-6.4-10.6c-1.5-0.7-3.1-1.1-5.9-1.1h-5v23.6h5C95.3,368.5,96.9,368.1,98.3,367.4z M121.4,378.5V335h22
					c3.8,0,6.5,0.7,8.7,2.1c3.6,2.3,6,6.3,6,11.4c0,3.3-1.1,6.2-2.9,8.4c-1.3,1.6-3.1,2.8-5,3.6l10.8,18.1h-12.6l-9.6-16.7h-6.5
					v16.7H121.4z M142.6,351.9c1.3,0,1.9-0.1,2.5-0.3c1.2-0.5,2.3-1.5,2.3-3.1c0-1.5-1-2.6-2.3-3.1c-0.5-0.2-1.2-0.3-2.5-0.3h-10.3
					v6.9H142.6z M196.7,335v9.9h-20.7v5h15.6v9.7h-15.6v8.8h20.7v10h-31.5V335H196.7z M207,363c3.6,3.2,8,5.5,12.4,5.5
					c2.7,0,6.5-0.8,6.5-3.4c0-2.9-5.2-3.4-10.7-4.5c-7.1-1.5-14.3-4.1-14.3-12.3c0-7.4,5.7-13.3,16-13.3c5.6,0,11.4,1.9,16.6,5.8
					l-6.1,7.8c-3-2.4-7.1-3.8-10.6-3.8c-2.3,0-5.3,0.6-5.3,2.6c0,2.1,3.4,2.7,8.7,3.6c7.5,1.2,16.4,3.6,16.4,14
					c0,7.9-7.5,13.6-17,13.6c-5.7,0-12.6-2.1-19-7.7L207,363z M245.6,363c3.6,3.2,8,5.5,12.4,5.5c2.7,0,6.5-0.8,6.5-3.4
					c0-2.9-5.2-3.4-10.7-4.5c-7.1-1.5-14.3-4.1-14.3-12.3c0-7.4,5.7-13.3,16-13.3c5.6,0,11.4,1.9,16.6,5.8l-6.1,7.8
					c-3-2.4-7.1-3.8-10.6-3.8c-2.3,0-5.3,0.6-5.3,2.6c0,2.1,3.4,2.7,8.7,3.6c7.5,1.2,16.4,3.6,16.4,14c0,7.9-7.5,13.6-17,13.6
					c-5.7,0-12.6-2.1-19-7.7L245.6,363z M312,335v9.9h-20.7v5H307v9.7h-15.6v8.8H312v10h-31.5V335H312z M342.3,336
					c8.9,2.8,15.5,10.8,15.5,20.7s-6.5,18-15.5,20.7c-2.1,0.6-4.4,1-7.8,1h-15.8V335h15.8C338,335,340.2,335.4,342.3,336z
					 M340.5,367.4c4-1.9,6.5-6,6.5-10.7c0-4.7-2.4-8.7-6.4-10.6c-1.5-0.7-3.1-1.1-5.9-1.1h-5v23.6h5
					C337.4,368.5,339,368.1,340.5,367.4z"/>
			</defs>
			<clipPath id="SVGID_00000098210149873430122890000010754858236671957162_">
				<use xlink:href="#SVGID_00000049184959512956502670000016141356889556450197_"  overflow="visible"/>
			</clipPath>
			<g transform="matrix(1 0 0 1 0 -1.525879e-05)" clip-path="url(#SVGID_00000098210149873430122890000010754858236671957162_)">
				
					<image overflow="visible" width="763" height="768" xlink:href="../../../../../../Downloads/Telegram Desktop/Backdrop Assets.zip - 4.png"  transform="matrix(0.3875 0 0 0.3875 68.7142 214.7738)">
				</image>
			</g>
		</g>
	</g>
	<g id="lText2">
		<g>
			<defs>
				<path id="SVGID_00000111903732328882076410000017037058677543519128_" d="M307.4,483.6h10.7v42.5h-10.7V483.6z M329.5,510.9
					c3.5,3.1,7.8,5.4,12.1,5.4c2.7,0,6.3-0.8,6.3-3.3c0-2.9-5-3.3-10.4-4.4c-6.9-1.4-14-4-14-12c0-7.3,5.6-13,15.6-13
					c5.4,0,11.2,1.8,16.2,5.6l-6,7.6c-2.9-2.3-6.9-3.7-10.4-3.7c-2.3,0-5.2,0.6-5.2,2.5c0,2.1,3.3,2.6,8.4,3.5
					c7.3,1.2,16,3.5,16,13.7c0,7.7-7.3,13.3-16.6,13.3c-5.6,0-12.3-2-18.6-7.5L329.5,510.9z"/>
			</defs>
			<clipPath id="SVGID_00000040538529084027220210000012501254519124915391_">
				<use xlink:href="#SVGID_00000111903732328882076410000017037058677543519128_"  overflow="visible"/>
			</clipPath>
			<g clip-path="url(#SVGID_00000040538529084027220210000012501254519124915391_)">
				
					<image overflow="visible" width="763" height="768" xlink:href="../../../../../../Downloads/Telegram Desktop/Backdrop Assets.zip - 4.png"  transform="matrix(8.061606e-02 0 0 8.076425e-02 300.929 472.7102)">
				</image>
			</g>
		</g>
	</g>
</g>
</svg>
