<?xml version="1.0" encoding="utf-8"?>
<!-- Generator: Adobe Illustrator 26.5.0, SVG Export Plug-In . SVG Version: 6.00 Build 0)  -->
<svg version="1.1" id="heroAnim" xmlns="http://www.w3.org/2000/svg" xmlns:xlink="http://www.w3.org/1999/xlink" x="0px" y="0px"
	 viewBox="0 0 1197 523" style="enable-background:new 0 0 1197 523;" xml:space="preserve">
<g id="heroItem18">
	
		<image style="overflow:visible;enable-background:new    ;" width="513" height="769" xlink:href="710ECD12.png"  transform="matrix(0.26 0 0 0.26 689.97 323.02)">
	</image>
</g>
<g id="heroItem17">
	
		<image style="overflow:visible;enable-background:new    ;" width="513" height="769" xlink:href="710ECD0D.png"  transform="matrix(0.273 0 0 0.273 534.9685 278.021)">
	</image>
</g>
<g id="heroItem16">
	
		<image style="overflow:visible;enable-background:new    ;" width="513" height="769" xlink:href="710ECD0C.png"  transform="matrix(0.3458 0 0 0.3458 393.7935 240.0266)">
	</image>
</g>
<g id="heroItem15">
	
		<image style="overflow:visible;enable-background:new    ;" width="513" height="770" xlink:href="337CF0CB.png"  transform="matrix(0.2572 0 0 0.2572 299.0297 307.9802)">
	</image>
</g>
<g id="heroItem14">
	
		<image style="overflow:visible;opacity:0.6;enable-background:new    ;" width="512" height="769" xlink:href="710ECD13.png"  transform="matrix(0.2979 0 0 0.2979 131.7354 276.9542)">
	</image>
</g>
<g id="heroItem13">
	
		<image style="overflow:visible;opacity:0.4;enable-background:new    ;" width="513" height="769" xlink:href="710ECD32.png"  transform="matrix(0.312 0 0 0.312 -3.600000e-02 266.024)">
	</image>
</g>
<g id="heroItem12_00000181062781094009910560000009792744305789463939_">
	
		<image style="overflow:visible;opacity:0.6;enable-background:new    ;" width="513" height="768" xlink:href="710ECD14.png"  transform="matrix(0.2323 0 0 0.2323 963.9196 169.8036)">
	</image>
</g>
<g id="heroItem11_00000052092193084152071210000013717974876917911955_">
	
		<image style="overflow:visible;opacity:0.9;enable-background:new    ;" width="512" height="768" xlink:href="710ECD15.png"  transform="matrix(0.2949 0 0 0.2949 823 218.75)">
	</image>
</g>
<g id="heroItem12">
	
		<image style="overflow:visible;enable-background:new    ;" width="513" height="769" xlink:href="337CF0C7.png"  transform="matrix(0.2418 0 0 0.2418 721.9721 200.0186)">
	</image>
</g>
<g id="heroItem11">
	
		<image style="overflow:visible;enable-background:new    ;" width="513" height="767" xlink:href="337CF0CE.png"  transform="matrix(0.2208 0 0 0.2208 608.8727 147.835)">
	</image>
</g>
<g id="heroItem10">
	
		<image style="overflow:visible;enable-background:new    ;" width="513" height="768" xlink:href="337CF0C6.png"  transform="matrix(0.2538 0 0 0.2538 457.9122 137.0586)">
	</image>
</g>
<g id="heroItem9">
	
		<image style="overflow:visible;opacity:0.8;enable-background:new    ;" width="513" height="769" xlink:href="710ECD0E.png"  transform="matrix(0.2652 0 0 0.2652 298.9694 157.0204)">
	</image>
</g>
<g id="heroItem8">
	
		<image style="overflow:visible;opacity:0.4;enable-background:new    ;" width="512" height="768" xlink:href="337CF0C5.png"  transform="matrix(0.2344 0 0 0.2344 179 152)">
	</image>
</g>
<g id="heroItem7">
	
		<image style="overflow:visible;opacity:0.4;enable-background:new    ;" width="511" height="768" xlink:href="337CF0CF.png"  transform="matrix(0.2567 0 0 0.2567 1065.9222 7.9408)">
	</image>
</g>
<g id="heroItem6">
	
		<image style="overflow:visible;opacity:0.8;enable-background:new    ;" width="513" height="768" xlink:href="337CF0CA.png"  transform="matrix(0.244 0 0 0.244 937.9156 -0.1937)">
	</image>
</g>
<g id="heroItem5">
	
		<image style="overflow:visible;opacity:0.8;enable-background:new    ;" width="512" height="769" xlink:href="337CF0C9.png"  transform="matrix(0.2524 0 0 0.2524 808.8915 21.9612)">
	</image>
</g>
<g id="heroItem4">
	
		<image style="overflow:visible;enable-background:new    ;" width="513" height="769" xlink:href="710ECD35.png"  transform="matrix(0.26 0 0 0.26 689.97 2.000649e-02)">
	</image>
</g>
<g id="heroItem3">
	
		<image style="overflow:visible;enable-background:new    ;" width="513" height="769" xlink:href="337CF0D9.png"  transform="matrix(0.2301 0 0 0.2301 556.9734 7.0177)">
	</image>
</g>
<g id="heroItem2">
	
		<image style="overflow:visible;enable-background:new    ;" width="512" height="768" xlink:href="710ECD16.png"  transform="matrix(0.2799 0 0 0.2799 397.8333 10)">
	</image>
</g>
<g id="heroItem1">
	
		<image style="overflow:visible;opacity:0.6;enable-background:new    ;" width="512" height="769" xlink:href="710ECD29.png"  transform="matrix(0.2407 0 0 0.2407 243.8889 9.963)">
	</image>
</g>
</svg>
